<?xml version="1.0" encoding="UTF-8"?>
<svg id="_x32_" xmlns="http://www.w3.org/2000/svg" xmlns:xlink="http://www.w3.org/1999/xlink" version="1.1" viewBox="0 0 512 512">
  <!-- Generator: Adobe Illustrator 29.3.1, SVG Export Plug-In . SVG Version: 2.1.0 Build 151)  -->
  <defs>
    <style>
      .st0 {
        fill: #4a2710;
      }
    </style>
  </defs>
  <path class="st0" d="M331.5,57.1c-15.2-41.5-53-65.7-84.6-54.2-31.5,11.5-44.8,54.5-29.6,96,15.2,41.5,53,65.8,84.6,54.2,31.5-11.5,44.8-54.5,29.6-96Z"/>
  <path class="st0" d="M488.2,145.8c3.8-43.4-19.9-80.9-52.9-83.8-33-2.8-62.8,30-66.5,73.4-3.7,43.4,19.9,80.9,52.9,83.8,33,2.9,62.8-30,66.5-73.4Z"/>
  <path class="st0" d="M176.7,118c-22.4-38.1-64-55.2-92.9-38.2-29,17-34.3,61.7-11.9,99.8,22.4,38.1,64,55.2,92.9,38.2,29-17,34.3-61.7,11.9-99.7Z"/>
  <path class="st0" d="M40.7,357c35.9,24.7,80.2,22.6,99-4.7,18.8-27.3,4.9-69.4-31-94.1-35.9-24.7-80.2-22.6-99,4.7-18.8,27.3-4.9,69.4,31,94.1Z"/>
  <path class="st0" d="M196.8,339.9c-6.6,20.9-61.7,49.4-34.5,117.9,19.2,48.3,78.3,67.1,125.3,45,35.7-16.9,52.3-39.9,73-49.7,20.8-9.8,49.1-7.9,84.8-24.8,47-22.2,70-79.8,45-125.3-35.5-64.5-92.5-40.1-112.9-48.3-20.4-8.2-35.5-26.9-59.1-41.3-21.4-13-48.5-15.6-72.8-4.2-24.3,11.5-39.5,34.1-43,58.8-4,27.4.9,51-5.7,71.9Z"/>
</svg>