<?xml version="1.0" encoding="UTF-8"?>
<svg id="_レイヤー_2" data-name="レイヤー 2" xmlns="http://www.w3.org/2000/svg" viewBox="0 0 419.73 271.47">
  <path d="M353.77,115.04c-21.68-23.56-54.05-19.23-57.66-18.66-5.78.91-9.72,6.33-8.81,12.11.91,5.78,6.35,9.72,12.11,8.81.99-.15,24.32-3.63,38.78,12.08,7.36,8,10.8,17.09,9.96,26.31-1.06,11.57-8.61,19.03-10.9,21.04-4.9,4.31-10.27,6.37-14.8,7.34,1.16-9.61.8-22.4-5.82-34.18-12.8-22.78-43.89-32.64-67.42-29.53-18.81,2.48-38.6,14.02-55.61,11.81-1.16-.15-3.03-.39-5.3-.95,2.11-2.88,3.98-6.35,5.04-10.44,1.36-5.29.92-9.84.07-18.47-.87-8.8-2.41-15.95-3.65-20.78.04-.28.15-1.17.26-2.3.12-1.18,2.18-23.5-6.81-35.67-.62-.84-1.38-1.75-2.62-2.15-2.95-.95-6.17,1.76-12.38,7.17-4.94,4.29-8.83,7.73-11.2,9.84-4.59-.79-9.53-1.48-14.78-1.99-5.23-.69-10.19-1.14-14.85-1.4-1.84-2.59-4.85-6.82-8.69-12.11-4.83-6.66-7.36-10.04-10.44-9.78-1.3.11-2.24.82-3.04,1.5-11.51,9.83-14.54,32.03-14.69,33.21-.14,1.12-.23,2.02-.26,2.3-5.07,8.7-7.63,16.51-9,21.93-1.9,7.51-3.52,13.9-1.84,21.8,1.81,8.51,6.45,14.11,8.75,16.83,5.96,7.04,13.53,11.44,20.83,14.25-.67,14.63-5.06,22.01-5.51,32.68-.3,7.08,1.08,17.33,9.19,30.12-19.47,3.16-33.47,9.49-33.94,16.76-.18,2.82,1.71,5.25,1.91,5.49,2.89,3.6,8.09,3.83,24.26,2.71,14.99-1.04,14.26-1.5,20.32-1.51,9.41-.02,11.47,1.09,20.97,1.08,8.82-.01,15.1-.98,18.17-1.38,9.51-1.24,27.39-2.09,64.29,0,.64,1.45,1.77,3.47,3.82,5.09,5.5,4.34,12.34,1.65,23.91.14,18.67-2.43,20.89,1.99,32.24-2.46,1.29-.5,7.76-3.11,14.45-9.01,6.96-6.14,10.99-13.08,13.43-18.65,8.53-.21,22.36-2.5,34.75-13.38,4.84-4.25,16.29-16.18,18.01-35.02,1.38-15.12-4.11-30.24-15.47-42.58Z"/>
</svg>