<?xml version="1.0" encoding="UTF-8"?>
<svg id="_レイヤー_2" data-name="レイヤー 2" xmlns="http://www.w3.org/2000/svg" viewBox="0 0 419.73 271.47">
  <path d="M343.92,167.05c-5.79-11.94-16.7-16.96-24.11-19.05-.71-9.96-3.66-20.2-9.39-29.11-14.55-22.63-44.41-32.57-67.42-29.53-18.81,2.48-38.6,14.02-55.61,11.81-1.96-.25-5.94-.77-10.45-2.63-1.58-3.28-3.08-6.06-4.33-8.26-.04-.27-.16-1.14-.35-2.23-.19-1.15-4.02-22.71-15.64-31.86-.8-.63-1.75-1.29-3.02-1.35-3.03-.14-5.36,3.26-9.82,9.95-3.54,5.32-6.32,9.57-8.02,12.17-4.53.44-9.37,1.07-14.44,1.95-5.1.7-9.9,1.57-14.36,2.52-2.4-1.96-6.34-5.17-11.32-9.17-6.28-5.03-9.53-7.56-12.37-6.51-1.19.44-1.9,1.36-2.47,2.2-8.3,12.24-5.42,33.95-5.26,35.1.16,1.1.3,1.96.35,2.23-2.53,9.51-2.92,17.53-2.82,22.99.15,7.57.28,14.01,3.9,21.02,3.9,7.55,9.72,11.64,12.59,13.6,4.01,2.75,8.27,4.64,12.53,5.93,1.17,2.52,2.6,5.16,4.35,7.93-19.47,3.16-33.47,9.49-33.94,16.76-.18,2.82,1.71,5.25,1.91,5.49,2.89,3.6,8.09,3.83,24.26,2.71,14.99-1.04,14.26-1.5,20.32-1.51,9.41-.02,11.47,1.09,20.97,1.08,8.82-.01,15.1-.98,18.17-1.38,9.51-1.24,27.39-2.09,64.29,0,.64,1.45,1.77,3.47,3.82,5.09,5.5,4.34,12.34,1.64,23.91.14,17.25-2.24,18.72,1.06,32.24-2.46,4.76-1.24,9.77-2.58,15.47-6.18,0,0,8.67-5.48,14.74-15.05,2.13-3.36,3.85-7.34,5.09-11.72,2.74,1.28,5.58,3.33,7.15,6.56,2.79,5.76.11,12.13-1.03,14.86-3.07,7.3-8.97,11.22-15.26,14.91-16.97,9.96-35.74,9.95-48.51,8.19-5.8-.81-11.14,3.25-11.94,9.04-.8,5.79,3.25,11.14,9.04,11.94,4.65.64,9.94,1.09,15.66,1.09,14.07,0,30.69-2.72,46.48-12,6.29-3.69,18-10.57,24.05-24.96,5.01-11.89,5.2-22.76.57-32.31Z"/>
</svg>