<?xml version="1.0" encoding="UTF-8"?>
<svg id="_レイヤー_2" data-name="レイヤー 2" xmlns="http://www.w3.org/2000/svg" viewBox="0 0 419.73 271.47">
  <path d="M416.32,123.93c-.95-5.6-2.9-13.7-7.32-22.91,0-.29-.03-1.2-.08-2.35-.06-1.21-1.32-23.91-12.15-34.79-.75-.75-1.64-1.55-2.95-1.77-3.1-.52-5.93,2.69-11.36,9.04-4.31,5.04-7.71,9.08-9.78,11.55-4.73-.11-9.79-.06-15.13.21-5.35.09-10.4.38-15.11.81-2.23-2.32-5.89-6.12-10.53-10.86-5.84-5.97-8.88-8.98-11.94-8.26-1.29.3-2.13,1.16-2.82,1.96-10.08,11.58-9.82,34.32-9.79,35.53.02,1.15.07,2.06.08,2.35-1.42,3.61-3.1,8.56-4.35,14.62-9.71-.43-18.22-1.19-26.89-2.56-33.98-5.37-42.51-21.82-71.46-21.41-13.07.18-21.71,3.68-26.11,5.83-7.76,3.78-13.16,8.63-16.44,12.07-.21.37-.42.72-.63,1.09-2.74.32-5.49.43-8.21.29-3.72-.19-13.49-1.28-23.98-7.45-7.23-4.25-10.22-8.2-14.37-13.67-4.25-5.61-9.54-12.59-20.07-20.58-6.36-4.82-15.97-12.11-29.47-15.78-23.1-6.28-44.24,1.16-57.9,8.51-5.15,2.77-7.08,9.19-4.31,14.34,2.77,5.15,9.19,7.08,14.34,4.31,10.27-5.52,25.95-11.17,42.32-6.72,9.53,2.59,16.57,7.93,22.23,12.22,8.21,6.23,11.99,11.21,15.98,16.49,4.76,6.28,9.68,12.77,20.52,19.14,12.86,7.55,24.92,9.67,31.89,10.22-2.12,4.7-3.68,8.69-4.86,12.04-1.99,5.64-3.2,10.27-7.72,14.45-4.44,4.11-9.5,5.41-12.23,10.4-1.94,3.55-2.94,7.56-2.94,7.56-.27,1.09-.43,1.98-.54,2.61-1.55,9.38-1.67,20.03-1.67,20.03-.11,9.72.29,16.18,1.57,22.98.53,2.81,1.18,5.59,3.5,7.86,2.86,2.82,7.26,3.89,10.89,3.04,1.12-.26,2.51-.59,3.49-1.79,1.83-2.26.79-5.89.36-7.4-.49-1.71-1.12-2.75-1.47-3.44-1.14-2.25-1.7-5.47.98-16.08,1.88-7.42,2.81-11.13,3.68-12.16,1.47-1.73,3.39-2.65,5.68-3.05-.22,1.79-.42,3.79-.56,5.98-.53,8.08-.69,13.27,1.55,23.19,2.08,9.22,4.32,11.12,6.16,12.09,4.11,2.16,11.04,2.18,13.59-.87,1.34-1.61,1.59-4.21.66-6.05-.61-1.21-1.49-1.61-2.72-3.62-.71-1.17-1.12-2.21-1.36-2.88-.76-3.71-1.68-10.8.8-19.02.8-2.65,1.82-4.95,2.87-6.91,8.12,1,17.35,1.32,26.99-2.13,5.89-2.11,10.27-5.02,12.96-7.06,10.47,7.6,31.94,21.06,62.49,25.81,33.52,5.21,60.17-2.85,72.42-7.41,3.51,4.66,6.96,8.02,9.54,10.27,7.06,6.16,8.12,4.46,22.69,13.24.72.44,4.48,2.7,9.59,3.11,3.18.25,4.38-.41,5.02-.94,2.2-1.84,1.76-5.62,1.66-6.42-.97-8.29-11.38-10.33-20.45-21.4-2.25-2.74-3.89-5.4-5.06-7.6.71.71,1.4,1.39,2.33,2.23,0,0,11.07,10.1,29.16,13.62,1.44.28,3.85.62,5.32-.67,1.84-1.62,1.54-4.79,1.49-5.33-.47-5.09-11.07-11.88-11.07-11.88h0s-12.57-9.16-18.07-16.16c-.07-.09-.15-.2-.23-.3,9.92-1.26,20.68-4.48,29.18-12.84,2.25-2.21,7.63-7.62,10.22-16.31,2.34-7.86,1.23-14.45-.08-22.2Z"/>
</svg>