<?xml version="1.0" encoding="UTF-8"?>
<svg id="_レイヤー_2" data-name="レイヤー 2" xmlns="http://www.w3.org/2000/svg" viewBox="0 0 419.73 271.47">
  <path d="M299.16,126.72c-3.89-6.05-8.72-11.48-14.35-16.13-4.51-3.73-11.18-3.09-14.91,1.42-3.73,4.51-3.09,11.19,1.42,14.91,3.94,3.26,7.32,7.05,10.02,11.26,9.46,14.71,8.12,30.75,7.1,36.96-.57,3.49-1.76,10.75-6.78,18.41l-.1.15c-2.37,3.61-5.94,9.06-12.52,12.25-4.01,1.95-8.01,2.65-11.52,2.74,1.93-7.99,2.69-17.77-.16-28.23-4.44-16.3-17.12-32.25-31.63-40.08-5.13-2.77-14.99-6.95-23.17-17.53-.39-.5-.75-1-1.1-1.49,2.49-1.2,4.95-2.63,7.31-4.36,3.41-2.5,12.34-9.05,15.22-20.22,1.36-5.29.92-9.84.07-18.47-.87-8.8-2.41-15.95-3.65-20.78.04-.28.15-1.17.26-2.3.12-1.18,2.18-23.5-6.81-35.67-.62-.84-1.38-1.75-2.62-2.15-2.95-.96-6.17,1.76-12.38,7.17-4.94,4.29-8.83,7.73-11.2,9.84-4.59-.79-9.53-1.48-14.78-1.99-5.23-.69-10.19-1.14-14.85-1.4-1.84-2.59-4.85-6.82-8.69-12.11-4.83-6.66-7.36-10.04-10.44-9.78-1.3.11-2.24.82-3.04,1.5-11.51,9.83-14.54,32.03-14.69,33.21-.14,1.12-.23,2.02-.26,2.3-5.07,8.7-7.63,16.51-9,21.93-1.9,7.51-3.52,13.9-1.84,21.8,1.81,8.51,6.45,14.11,8.75,16.83,4.54,5.36,10.01,9.19,15.59,11.95-2.47,6.13-5.17,13.99-7.29,23.29-3.67,16.13-7.05,30.98-3.13,47.28,5.82,24.22,26.86,47.91,23.28,51.41-.19.18-1.57,1.42-1.67,1.5-.97.87-2.94,2.54-3.23,2.79-1.64,1.42-2.44,3.47-2.57,3.8-.08.21-1.93,5.13.78,8.44,1.03,1.26,2.29,1.74,3.44,2.19,3.87,1.53,7.51.67,10.33,0,4.15-.99,7.11-2.71,7.83-3.13,3.68-2.2,6.58-4.38,6.58-4.38,1.59-1.2,2.69-2.15,4.38-2.19.06,0,.12,0,.12,0,1.58-.01,2.65.66,3.33,1.25-.18.41-2.3,5.43.29,8.72,1.57,1.99,4.03,2.29,6.4,2.58,6.44.78,11.78-2.01,13.95-3.15,4.26-2.23,7.46-4.84,7.46-4.84.85-.69,2.16-1.73,4.15-3,.88-.56,2.07-1.29,3.76-1.88,2.66-.93,4.75-.88,7.2-.94,2.93-.07,5.84-.47,8.77-.63,6.51-.35,14.92-9.4,20.38-18.48,2.31.33,4.93.56,7.78.56,6.39,0,13.92-1.15,21.57-4.86,11.84-5.74,17.79-14.82,20.99-19.69l.1-.15c7.49-11.42,9.23-22.06,9.97-26.61,1.75-10.71,2.76-31.7-10.19-51.84Z"/>
</svg>