<?xml version="1.0" encoding="UTF-8"?>
<svg id="_レイヤー_2" data-name="レイヤー 2" xmlns="http://www.w3.org/2000/svg" viewBox="0 0 419.73 271.47">
  <path d="M364.69,119.44c-.19-5.4-1.02-13.28-4.04-22.52.03-.27.13-1.13.22-2.22.1-1.14,1.75-22.71-7.11-34.32-.61-.8-1.36-1.67-2.56-2.04-2.86-.88-5.93,1.8-11.84,7.1-4.7,4.22-8.41,7.6-10.67,9.66-4.45-.7-9.22-1.28-14.3-1.7-5.06-.58-9.86-.94-14.35-1.13-1.81-2.47-4.79-6.51-8.57-11.56-4.76-6.36-7.25-9.58-10.23-9.28-1.25.13-2.15.83-2.91,1.5-10.96,9.66-13.55,31.13-13.68,32.27-.12,1.09-.2,1.95-.22,2.22-2.36,4.25-5.44,10.64-7.67,18.87-.99,3.66-1.86,6.92-2.28,10.28-4.02.29-8.84.66-16.62.56-20.84-.27-24.99-3.43-66.9-7.1-11.26-.99-19.51-1.51-29.55,1.83-4.67,1.55-14.71,5.03-22.55,14.46-.36.44-.7.89-1.04,1.33-1.94-.6-4.07-.65-6.16-.02-3.46,1.04-12.48,2.98-21.55-1.42-5.67-2.75-9.68-6.51-11.94-11.19-3.07-6.38-2.02-12.88-1.45-16.37,1.37-8.44,5.19-14.12,9.22-20.14,5.07-7.55,10.81-16.11,9.68-28.61-.51-5.66-2.35-11.15-5.46-16.33-3.01-5.01-9.52-6.63-14.53-3.62-5.01,3.01-6.63,9.52-3.62,14.53,1.45,2.41,2.3,4.88,2.52,7.33.43,4.81-1.7,8.23-6.17,14.9-4.65,6.92-10.43,15.54-12.54,28.55-.81,4.96-2.7,16.58,3.28,28.97,4.38,9.08,11.7,16.16,21.77,21.05,7.65,3.71,15.17,4.86,21.56,4.86,2.23,0,4.32-.14,6.23-.36-.73,3.7-1.24,7.34-1.74,10.77-2.12,14.48,1.1,15.68-1.98,28.53-3.31,13.79-7.95,16.33-8.38,28.88-.12,3.38.53,8.38,1.81,18.37,1.02,7.89,1.69,10.71,3.94,13.49.69.85,4.72,5.83,10.76,5.53,2.77-.14,6.9-1.43,8.33-4.59,1.41-3.08-.81-5.63-2.23-10.86-2.3-8.45-.34-15.8.42-18.64,2.49-9.34,9.22-17.29,11.33-16.43,1.17.48.26,3.44-.25,15.97-.36,8.8-.13,12.51.22,15.51.93,8.1,2.69,11.29,3.33,12.38.93,1.58,3.04,4.71,6.81,7.28,1.6,1.09,3.96,2.7,7.41,3.21,1.95.29,7.16,1.07,9.85-2.25,2.39-2.94,1.39-7.37.15-9.81-1.47-2.9-3.05-2.52-4.88-5.23-1.43-2.12-1.5-6.01-1.57-13.7-.06-6.89.42-9.6.85-11.91.48-2.63,1.34-4.66,1.53-5.04,2.96-6.04,35.71,3.13,35.71,3.13,14.2,4,35.52,7.2,65.12,2.19,5.56-.94,13.22-.8,22.22-1.78,2.93,10.03,4.95,17,6.13,21.07,1.49,5.15,2.3,7.94,4.11,11.74,2.85,5.97,5.36,11.23,10.82,13.66,4.44,1.98,11.78,2.5,13.86-1.33,1.42-2.61.11-6.72-2.95-10.21-2.42-5.91-4.86-13.87-5.06-22.96,2.44,1.33,4.69,1.58,7.48,3.82,5.46,4.38,3.3,8.61,8.29,11.3,3.5,1.89,8.75,2.07,11.45-.6,1.03-1.02,1.4-2.18,1.67-3.03,1.88-6.12-2.17-12.46-3.47-14.45-3.28-4.99-4.78-4.11-10.14-9.87-5.16-5.56-7.02-9.87-9.65-12.64,7.39-21.17,11.6-31.83,10.99-38.31,9.57.08,20.22-1.58,29.36-8.45,2.39-1.8,8.14-6.23,11.68-14.1,3.19-7.11,2.97-13.47,2.7-20.95Z"/>
</svg>