<?xml version="1.0" encoding="UTF-8"?>
<svg id="_レイヤー_2" data-name="レイヤー 2" xmlns="http://www.w3.org/2000/svg" viewBox="0 0 419.73 271.47">
  <path d="M328.13,163.48c-6.04.25-11.64,1.73-16.65,4.42-11.06,5.93-15.05,15.43-18.57,23.82-2.8,6.68-5.45,12.99-11.75,18.78-2.6,2.39-7.45,6.85-14.47,7.79-5.15.69-10.5-.6-15.91-3.82-.36-.22-.7-.45-1.05-.67,2.58-8.57,4.13-19.77.83-31.88-4.44-16.3-17.12-32.25-31.63-40.08-5.13-2.77-14.99-6.95-23.17-17.53-.53-.68-1.01-1.35-1.46-2,1.4-.97,2.79-2.03,4.15-3.23,6.25-5.51,9.4-11.4,11.14-14.7,3.01-5.72,6.9-15.53,6.44-27.93-.19-5.3-.65-14.46-6.62-23.74-3.08-4.78-6.61-8.02-9.17-10.03-.3-2.42-.96-6.53-2.61-11.38-4.31-12.65-13.51-24.86-16.99-23.51-.23.09-.59.58-1.3,1.56-2.08,2.86-3.4,5.26-4.46,7.17-1.58,2.82-2.37,4.24-3.04,5.29-1.75,2.74-3.45,4.76-4.57,6-6.33-.39-11.57.12-15.32.71-5.46.86-9.6,1.52-14.5,4.16-5.57,3-9.23,7.01-10.79,8.73-2.08,2.28-4.27,5.2-4.61,5.67-1.4,1.88-2.51,3.52-3.31,4.74-.83.41-2.1,1-3.68,1.62-1.3.51-2.17.8-2.52.92-3.39,1.2-5.93,4.71-6.49,5.48-.72.99-2.7,3.96-3.47,10.3-.97,8.06.88,14.6,1.65,16.98,5.01,15.57,19.21,25.53,24.87,29.43-2.82,6.52-6.23,15.64-8.78,26.86-3.67,16.13-7.05,30.98-3.13,47.28,5.82,24.22,26.86,47.91,23.28,51.41-.19.18-1.57,1.42-1.67,1.5-.97.87-2.94,2.54-3.23,2.79-1.64,1.42-2.44,3.47-2.57,3.8-.08.21-1.93,5.13.78,8.44,1.03,1.26,2.29,1.74,3.44,2.19,3.87,1.53,7.51.67,10.33,0,4.15-.98,7.11-2.71,7.83-3.13,3.68-2.2,6.58-4.38,6.58-4.38,1.59-1.2,2.69-2.15,4.38-2.19.06,0,.12,0,.12,0,1.58-.01,2.65.66,3.33,1.25-.18.41-2.3,5.43.29,8.72,1.57,1.99,4.03,2.29,6.4,2.58,6.44.78,11.78-2.01,13.95-3.15,4.26-2.23,7.46-4.84,7.46-4.84.85-.69,2.16-1.73,4.15-3,.88-.56,2.07-1.29,3.76-1.88,2.66-.93,4.75-.88,7.2-.94,2.93-.07,5.84-.47,8.77-.63,5.96-.32,13.49-7.92,18.92-16.16,7.58,4.36,15.35,6.58,23.19,6.58,1.87,0,3.75-.13,5.63-.38,13.64-1.82,22.3-9.79,26-13.19,9.7-8.92,13.72-18.49,16.95-26.17,3.11-7.41,4.79-11.07,9.05-13.35,2.16-1.16,4.69-1.81,7.51-1.92,5.84-.24,10.39-5.17,10.15-11.02-.24-5.84-5.14-10.4-11.02-10.15Z"/>
</svg>