<?xml version="1.0" encoding="UTF-8"?>
<svg id="_レイヤー_2" data-name="レイヤー 2" xmlns="http://www.w3.org/2000/svg" viewBox="0 0 419.73 271.47">
  <path d="M375.78,117.26c-1.84-19.52-10.47-35.56-24.31-45.15-16.33-11.31-33.75-9.84-40.31-9.28-11.75.99-21.37,4.83-28.67,9.02-3.04-1.43-5.86-2.4-8.16-3.16-17.52-5.84-33.1-2.36-38.9-.74-24.59,6.84-39.12,26.13-42.6,30.75-10.32,13.69-13.88,26.91-26.3,34.08-.88.51-1.78,1-2.68,1.47-.48-2.84-1.09-5.12-1.44-6.38-1.67-6.13-5.45-15.8-14.09-24.41-3.69-3.68-10.16-9.97-20.68-12.64-5.42-1.38-10.13-1.34-13.32-1.07-7.77-7.8-14.3-10.76-19.05-11.91-.18-.04-.34-.08-.4-.09-2.74-.63-15.13-3.23-18.5,1.78-1.11,1.64-.5,2.94,1.48,14.43.64,3.74,1.12,6.76,1.4,8.58-2.53,2.1-5.84,5.19-9.18,9.4-3.1,3.91-5.82,7.34-7.64,12.71-2,5.89-1.94,11.23-1.91,13.52.03,3.03.42,6.61.48,7.17.25,2.29.55,4.21.8,5.63-.32.84-.84,2.12-1.56,3.64-1.24,2.61-1.8,3.23-2.23,4.56-.71,2.18-.35,4.09.04,6.09.78,3.95,2.56,7.16,4.41,9.73.53.74,5.11,6.99,12.57,11.11,8.99,4.97,19.4,5.34,26.8,4.75-6.22,4.04-11.88,6.76-15.83,8.66-12.02,5.77-18.02,8.65-23.39,9.68-6.79,1.3-13.54,1.36-17,6.31-.35.5-2.8,4.01-1.81,7.67.14.53.8,2.94,2.86,4.1.53.3,1,.4,1.24.49,6.89,2.36,26.16-.32,26.16-.32,11.57-1.61,10.37-.88,15.77-2.02,5.69-1.2,16.26-4.87,16.26-4.87,2.63-.91,6.6-2.26,11.57-3.87,7.99.57,19.87,1.07,34.24.35,23.85-1.2,52.07-3,80.76-18.92,10.82-6,19.12-12.58,25.01-17.9,1.49,5.85,3.89,9.66,5.83,12.07,3.26,4.05,5.89,4.99,6.81,8.7.74,2.99.17,6.97-2.15,9.71-3.67,4.33-8.93,2.04-11.31,6.43-1.01,1.87-1.63,4.95-.3,6.98.84,1.29,2.17,1.93,2.17,1.93.96.47,1.84.52,2.27.53,5.68.24,8.28-.12,8.28-.12,4.65-.63,6.98-.95,8.94-1.8,1.31-.57,4.31-1.9,6.75-4.79.38-.45.59-.8,1.04-1.48,2.01-3.06,2.76-5.27,4.32-8.82,1.86-4.25,1.81-3.45,2.35-5.03,1.51-4.48,1.08-8.56.53-13.85-.15-1.41-.52-4.74-.46-9.33,0,0,0-.02,0-.03.14-5.38,1.22-9.53,2.6-15.33,2.63-11.11,5.33-14.94,8.2-23.61,2.55-7.71,6.74-19.49,4.52-33.43-.84-5.26-2.31-14.45-8.67-23.26,3.93-1.52,8.42-2.69,13.46-3.11,5.48-.46,16.88-1.43,27.35,5.82,9.08,6.29,14.57,16.91,15.87,30.71.33,3.54.95,10.12-1.99,17.68-4.58,11.79-14.52,17.68-18.58,19.66-4.92,2.4-6.96,8.34-4.55,13.26,1.72,3.52,5.24,5.56,8.91,5.56,1.46,0,2.95-.32,4.35-1.01,6.15-3.01,21.24-11.98,28.35-30.29,4.64-11.93,3.66-22.3,3.25-26.72Z"/>
</svg>