<?xml version="1.0" encoding="UTF-8"?>
<svg id="_レイヤー_2" data-name="レイヤー 2" xmlns="http://www.w3.org/2000/svg" viewBox="0 0 419.73 271.47">
  <path d="M351.01,85.7c-6.39-12.27-18.5-21.76-33.22-26.04-14.95-4.34-31.46-3.12-46.5,3.42-5.36,2.33-7.82,8.57-5.49,13.94,2.33,5.36,8.57,7.82,13.94,5.49,23.03-10.02,45.18-1.07,52.49,12.97,5.41,10.4,3.97,24.31-3.51,33.82-10.33,13.14-27.62,12.11-32.67,11.48-3.98-.5-7.9-1.67-11.63-3.49-.9-.44-1.83-.73-2.77-.9-.52-.74-1.06-1.47-1.65-2.17-15.79-19.13-47.64-16.19-50.74-15.86-23.86,2.52-31.8,16.18-55.58,13.55-4.19-.46-7.58-1.3-10.38-2.44,2.76-2.66,5.66-6.27,7.69-11,2.52-5.86,2.69-11.11,2.9-17.54.28-8.52-.79-15.53-1.8-20.29.06-.27.24-1.11.44-2.19.21-1.13,4.02-22.42-3.62-34.86-.53-.86-1.18-1.79-2.34-2.28-2.76-1.16-6.08,1.19-12.5,5.87-5.1,3.72-9.13,6.71-11.58,8.54-4.35-1.14-9.05-2.2-14.05-3.13-4.97-1.09-9.71-1.93-14.16-2.57-1.55-2.64-4.11-6.96-7.37-12.36-4.1-6.81-6.25-10.26-9.24-10.26-1.26,0-2.22.61-3.04,1.2-11.87,8.51-16.62,29.61-16.86,30.73-.23,1.07-.39,1.92-.44,2.19-5.59,7.95-8.7,15.25-10.46,20.35-2.45,7.07-4.52,13.08-3.56,20.82,1.07,8.56,5.27,14.48,7.03,16.91,5.2,7.16,12.19,11.59,19.33,14.5-1.54,17.42-2.95,23.06-2.67,32.25.26,8.22,1.9,20.04,8.47,34.37,1.52,3.13,3.7,7.79,6.12,13.63,1.26,3.03,1.89,4.58,2.33,6.1.05.16.1.35.16.58,1.89,7.57.73,16.17.73,16.17-.71,4.99-1.07,7.48-2.7,10.13-1.52,2.46-3.26,3.83-3.77,6.9-.14.85-.51,3.11.55,5.13,2.14,4.05,8.81,4.75,13.32,3.66,5.17-1.25,8.17-5.03,9.32-6.77,1.44-2.18,1.96-4.45,2.95-8.92.78-3.53,1.3-7.01,1.75-11.99.34-3.78.68-8.82.73-14.86,1.23.09,2.46.18,3.7.28,1.02.08,2.03.16,3.03.25.51,5.24.37,9.68.09,12.99-.66,7.95-.99,11.92-3,14.96-1.02,1.55-2.61,3.37-2.78,6.24-.04.71-.14,2.81,1.12,4.72,2.27,3.45,7.09,3.48,8.82,3.5,1.05,0,4.29-.01,7.42-2.12,1.45-.98,2.52-2.17,3.4-3.45,4.02-5.86,4.95-15,5.7-23.25.51-5.56.89-10.27,1.17-13.79.8-.06,2.21-.17,3.95-.27,12.03-.74,20.9-.38,22.9-.33,21.37.49,45.42-16.48,55.38-9.62,3.68,2.54,5.8,6.1,5.8,6.1,1.76,2.95,2.28,5.75,2.73,8.15.65,3.48.61,6.16.56,8.31-.12,5.66-.2,9.4-2.06,13.48-2.24,4.92-5.04,5.91-4.99,9.89,0,.7.07,3.07,1.71,4.92,2.46,2.79,6.7,2.43,9.59,2.19,4.89-.41,8.25-2.59,9.19-3.23,3.86-2.64,5.63-5.99,6.42-7.52.99-1.92,1.72-4.02,2.65-12.33.85-7.56,1.27-11.33,1.11-16.34-.12-3.72-.53-8.61-1.72-14.27,2.84,1.95,6.82,5.41,9.28,10.87,1.84,4.09,1.94,7.81,2.12,15.25.16,6.41-.72,8.73-1.59,10.21-.34.57-.83,1.27-1.22,2.45-.2.59-1.3,3.85.09,6.73,1.97,4.1,7.56,4.44,8.12,4.47,5.64.26,9.46-4.18,10.14-4.97,2.24-2.6,3.06-5.4,4.17-13.55,1.35-9.85,1.87-14.77,1.77-17.89-.42-12.22-4.94-14.7-8.16-28.13-3-12.52.13-13.68-1.93-27.79-.28-1.92-.59-4-.95-6.16.92.16,1.83.31,2.76.42,1.77.22,4.5.47,7.87.47,11.6,0,30.75-2.92,44.08-19.87,12.65-16.09,14.92-38.87,5.65-56.69Z"/>
</svg>