<?xml version="1.0" encoding="UTF-8"?>
<svg id="_レイヤー_2" data-name="レイヤー 2" xmlns="http://www.w3.org/2000/svg" viewBox="0 0 419.73 311.43">
  <path d="M272.08,96.44c-.09-.95-.48-5.26-2.78-8.02-.24-.28-.84-.98-1.7-2.08-1.04-1.34-1.83-2.5-2.34-3.28-.06-1.46-.17-3.44-.42-5.77-.06-.57-.45-4.21-1.07-7.23-.47-2.28-1.56-7.6-4.82-13.02-2.86-4.77-6.09-7.46-10.34-10.98-2.92-2.42-7.17-5.54-12.81-8.43-.33-1.65-.76-4.25-.86-7.49-.04-1.25,0-2.87.09-6.1.06-2.18.15-4.92-.18-8.44-.11-1.21-.17-1.82-.32-2.01-2.3-2.94-16.44,2.86-26.61,11.54-3.9,3.33-6.57,6.53-8.06,8.45-3.23.42-7.92,1.4-13,3.94-9.88,4.93-14.95,12.57-17.82,17.03-6.72,10.42-8.39,20.84-8.73,27.3-.19,3.72-.49,10.4,2.06,18.33,4.32,13.39,13.91,21.39,18.92,24.88-.89,1.45-1.97,3.07-3.28,4.77-8.18,10.58-18.04,14.77-23.17,17.53-14.5,7.83-27.18,23.78-31.63,40.08-2.52,9.26-2.21,17.99-.77,25.41-14.09-.92-27.17,3.91-35.25,13.74-1.09,1.33-10.54,13.36-7.62,27.74,4.13,20.31,30.26,34.02,64.17,34.02,1.23,0,2.48-.02,3.74-.06,5.85-.17,10.45-5.05,10.28-10.9-.17-5.85-5.02-10.47-10.9-10.28-27.94.81-44.97-9.35-46.52-17.01-.79-3.9,2.18-8.75,3.23-10.08,5.3-6.45,16.74-7.98,27.81-3.73.12.05.24.08.36.12,5.47,9.03,13.82,17.99,20.29,18.34,2.93.16,5.84.55,8.77.63,2.46.06,4.54.01,7.2.94,1.68.59,2.88,1.32,3.76,1.88,1.98,1.27,3.29,2.31,4.15,3,0,0,3.2,2.61,7.46,4.84,2.17,1.14,7.51,3.94,13.95,3.15,2.37-.29,4.83-.59,6.4-2.58,2.59-3.29.47-8.31.29-8.72.68-.6,1.75-1.27,3.33-1.25,0,0,.06,0,.12,0,1.7.05,2.79.99,4.38,2.19,0,0,2.89,2.19,6.58,4.38.71.43,3.68,2.15,7.83,3.13,2.83.67,6.47,1.53,10.33,0,1.15-.46,2.41-.93,3.44-2.19,2.71-3.3.87-8.23.78-8.44-.13-.33-.93-2.38-2.57-3.8-.29-.25-2.26-1.92-3.23-2.79-.1-.09-1.48-1.32-1.67-1.5-3.58-3.51,17.45-27.19,23.28-51.41,3.92-16.31.54-31.15-3.13-47.28-1.81-7.95-4.05-14.84-6.2-20.5,4.32-1.79,8.62-4.23,12.43-7.59,1.87-1.65,6.8-6.33,10.09-13.76,2.59-5.84,2.39-9.41,2.28-10.62Z"/>
</svg>