<?xml version="1.0" encoding="UTF-8"?>
<svg id="_レイヤー_2" data-name="レイヤー 2" xmlns="http://www.w3.org/2000/svg" viewBox="0 0 419.73 271.47">
  <path d="M388.87,135.75c5.92-6.32,8.4-13.8,8.69-14.68.99-3.07,1.7-6.73,1.22-10.8-.24-2.05-.5-4.01-1.87-5.9-.83-1.15-1.57-1.58-3.59-3.71-1.17-1.24-2.07-2.32-2.65-3.03-.2-1.45-.51-3.4-.99-5.7-.12-.56-.86-4.14-1.78-7.09-.69-2.22-2.3-7.41-6.08-12.48-3.44-4.63-7.15-7.1-11.37-9.91-4.55-3.03-8.72-4.98-11.82-6.22-.3-1.85-.78-4.92-1.33-8.74-1.68-11.74-1.5-13.18-3.09-14.43-4.83-3.79-16.01,2.6-18.46,4.07-.05.03-.19.11-.35.21-4.23,2.59-9.63,7.5-14.7,17.48-3.17.74-7.74,2.18-12.55,5.2-9.35,5.88-13.64,13.99-16.06,18.7-5.66,11.03-6.29,21.57-5.99,28.03.13,2.89.5,10.82,3.86,18.03.83,1.79,1.84,3.47,2.97,5.06-5.34,2.62-10.26,3.27-12.52,3.57-17.01,2.21-36.8-9.33-55.61-11.81-23.53-3.11-54.62,6.75-67.42,29.53-8.42,14.98-6.72,31.61-4.64,41.22-2.99,1.01-6.06,1.74-9.16,2.14-1.73.22-17.23,1.98-29.07-5.08-6.89-4.1-9.02-9.18-11.98-16.2-3.56-8.48-8-19.03-21.69-26.52-13.98-7.65-26.04-7.1-33.7-5.29-11.4,2.7-19.2,9.42-23.72,14.59-3.86,4.4-3.42,11.09.98,14.95,4.4,3.85,11.09,3.42,14.95-.98,2.49-2.84,6.72-6.53,12.67-7.94,5.89-1.39,12.16-.3,18.65,3.25,7.2,3.94,9.36,9.06,12.34,16.15,3.47,8.25,7.79,18.52,20.67,26.19,11.76,7.01,25.06,8.4,33.78,8.4,4.32,0,7.51-.34,8.85-.51,4.64-.6,9.24-1.7,13.7-3.25,2.48,4.43,5.95,9.25,10.95,13.66,6.69,5.9,13.16,8.5,14.45,9.01,11.35,4.45,13.58.03,32.24,2.46,11.57,1.51,18.41,4.2,23.91-.14,2.05-1.62,3.18-3.64,3.82-5.09,36.9-2.09,54.78-1.24,64.29,0,3.07.4,9.36,1.37,18.17,1.38,9.5.01,11.56-1.1,20.97-1.08,6.06.01,5.33.48,20.32,1.51,16.17,1.12,21.38.88,24.26-2.71.2-.25,2.09-2.67,1.91-5.49-.47-7.26-14.47-13.6-33.94-16.76,8.11-12.8,9.49-23.04,9.19-30.12-.42-10.08-4.38-17.22-5.38-30.32,7.25-1.81,16.79-5.43,23.69-12.8Z"/>
</svg>