<?xml version="1.0" encoding="UTF-8"?>
<svg id="_レイヤー_2" data-name="レイヤー 2" xmlns="http://www.w3.org/2000/svg" viewBox="0 0 419.73 271.47">
  <path d="M380.96,86.47c-19.43-6.27-35.89-5.89-48.92,1.14-10.96,5.91-15.86,14.43-20.18,21.95-4.01,6.97-7.46,12.99-15.88,18.17-3.6,2.22-14.56,8.97-26.95,5.92-2.21-.54-4.23-1.35-6.09-2.32-1.68-5.03-4.05-9.98-7.58-14.25-15.79-19.13-47.64-16.19-50.74-15.86-23.86,2.52-31.8,16.18-55.58,13.55-.86-.1-1.68-.21-2.48-.34,1.16-2.5,2.09-5.3,2.52-8.39.76-5.41-.19-9.88-2.01-18.36-1.85-8.65-4.19-15.58-5.96-20.24,0-.28.02-1.18,0-2.31-.01-1.19-.47-23.59-10.77-34.68-.71-.76-1.57-1.58-2.84-1.84-3.04-.62-5.94,2.45-11.5,8.51-4.42,4.82-7.91,8.67-10.03,11.03-4.65-.27-9.64-.4-14.91-.32-5.27-.1-10.26.02-14.91.27-2.12-2.36-5.59-6.23-10-11.06-5.55-6.08-8.44-9.15-11.48-8.54-1.28.26-2.14,1.07-2.85,1.83-10.33,11.06-10.85,33.46-10.87,34.65-.02,1.13,0,2.03,0,2.31-4.06,9.22-5.73,17.26-6.49,22.8-1.05,7.68-1.94,14.21.62,21.87,2.75,8.25,7.99,13.3,10.58,15.74,5.2,4.9,11.19,8.13,17.14,10.25-.39,3.92-.59,7.25-.46,11.25.26,8.22,1.9,20.04,8.47,34.37,1.52,3.13,3.7,7.79,6.12,13.63,1.26,3.03,1.89,4.58,2.33,6.1.05.16.1.35.16.58,1.89,7.57.73,16.17.73,16.17-.71,4.99-1.07,7.48-2.7,10.13-1.52,2.46-3.26,3.83-3.77,6.9-.14.85-.51,3.11.55,5.13,2.14,4.05,8.81,4.75,13.32,3.66,5.17-1.25,8.17-5.03,9.32-6.77,1.44-2.18,1.96-4.45,2.95-8.92.78-3.53,1.3-7.01,1.75-11.99.34-3.78.68-8.82.73-14.86,1.23.09,2.46.18,3.7.28,1.02.08,2.03.16,3.03.25.51,5.24.37,9.68.09,12.99-.66,7.95-.99,11.92-3,14.96-1.02,1.55-2.61,3.37-2.78,6.24-.04.71-.14,2.81,1.12,4.72,2.27,3.45,7.09,3.48,8.82,3.5,1.05,0,4.29-.01,7.42-2.12,1.45-.98,2.52-2.17,3.4-3.45,4.02-5.86,4.95-15,5.7-23.25.51-5.56.89-10.27,1.17-13.79.8-.06,2.21-.17,3.95-.27,12.03-.74,20.9-.38,22.9-.33,21.37.49,45.42-16.48,55.38-9.62,3.68,2.54,5.8,6.1,5.8,6.1,1.76,2.95,2.28,5.75,2.73,8.15.65,3.48.61,6.16.56,8.31-.12,5.66-.2,9.4-2.06,13.48-2.24,4.92-5.04,5.91-4.99,9.89,0,.7.07,3.07,1.71,4.92,2.46,2.79,6.7,2.43,9.59,2.19,4.89-.41,8.25-2.59,9.19-3.23,3.86-2.64,5.63-5.99,6.42-7.52.99-1.92,1.72-4.02,2.65-12.33.85-7.56,1.27-11.33,1.11-16.34-.12-3.72-.53-8.61-1.72-14.27,2.84,1.95,6.82,5.41,9.28,10.87,1.84,4.09,1.94,7.81,2.12,15.25.16,6.41-.72,8.73-1.59,10.21-.34.57-.83,1.27-1.22,2.45-.2.59-1.3,3.85.09,6.73,1.97,4.1,7.56,4.44,8.12,4.47,5.64.26,9.46-4.18,10.14-4.97,2.24-2.6,3.06-5.4,4.17-13.55,1.35-9.85,1.87-14.77,1.77-17.89-.42-12.22-4.94-14.7-8.16-28.13-2.64-11.02-.53-13.24-1.4-23.25,2.65.45,5.33.69,8.02.69,10.33,0,20.89-3.3,31.55-9.86,12.99-8,18.61-17.78,23.13-25.64,3.61-6.28,6.22-10.82,11.87-13.87,7.75-4.18,18.63-4.06,32.36.37,5.57,1.8,11.54-1.26,13.33-6.83,1.8-5.57-1.26-11.54-6.83-13.33Z"/>
</svg>