<?xml version="1.0" encoding="UTF-8"?>
<svg id="_レイヤー_2" data-name="レイヤー 2" xmlns="http://www.w3.org/2000/svg" viewBox="0 0 419.73 344.33">
  <path d="M272.71,182.42c-5.36-11.99-8.89-13.62-20.19-33.22-6.03-10.47-10.83-20.07-14.57-28.23,2.78-1.62,5.49-3.55,8.08-5.87,3.47-3.11,11.86-10.62,13.67-22.31.85-5.51-.04-10.1-1.13-15.69-1.93-9.9-5.25-17.54-7.73-22.4,0-.28.01-1.18,0-2.31-.02-1.19-.51-23.59-10.82-34.66-.71-.76-1.57-1.58-2.84-1.84-3.04-.61-5.93,2.45-11.49,8.53-4.42,4.83-7.89,8.69-10.01,11.05-4.65-.26-9.64-.38-14.91-.3-5.27-.09-10.26.03-14.91.3-2.12-2.36-5.6-6.22-10.01-11.05-5.56-6.07-8.45-9.14-11.49-8.53-1.28.26-2.13,1.07-2.84,1.84-10.31,11.07-10.8,33.48-10.82,34.66-.01,1.13,0,2.03,0,2.31-2.49,4.87-5.8,12.51-7.73,22.4-1.09,5.59-1.99,10.18-1.13,15.69,1.81,11.69,10.2,19.2,13.67,22.31,3.37,3.02,6.94,5.38,10.59,7.24-2.64,7.91-5.99,17.15-10.16,27.3-8.92,21.68-12.57,25.5-16.07,37.98-3.28,11.69-10.86,38.71,1.3,60.57,11.23,20.18,35.25,28.72,57.75,30.49-.18,4.93-1.38,10.44-4.68,15.73-5.07,8.15-13.61,13.36-25.38,15.48-5.38.97-16.57,2.99-26.38-4.21-10.69-7.84-11.81-20.89-11.93-23.42-.27-5.84-5.2-10.35-11.07-10.09-5.84.27-10.36,5.22-10.09,11.07.27,5.93,2.56,26.32,20.56,39.53,10.21,7.49,20.92,9.33,29.38,9.33,5.75,0,10.46-.85,13.29-1.36,22.3-4.02,33.85-15.89,39.6-25.13,5.82-9.35,7.77-18.89,7.9-27.21,1.79-.2,3.52-.43,5.2-.71,10.13-1.66,40.5-6.65,52.95-30.8,12.46-24.19-.49-53.18-5.54-64.48Z"/>
</svg>