<?xml version="1.0" encoding="UTF-8"?>
<svg id="_レイヤー_2" data-name="レイヤー 2" xmlns="http://www.w3.org/2000/svg" viewBox="0 0 419.73 269.56">
  <path d="M266.57,142.75c-4.44-9.94-7.37-11.29-16.73-27.53-5-8.68-8.97-16.63-12.07-23.4,2.3-1.34,4.55-2.94,6.7-4.86,2.88-2.58,9.83-8.81,11.33-18.5.71-4.57-.04-8.37-.94-13-1.6-8.2-4.35-14.53-6.41-18.57,0-.23.01-.98,0-1.92-.01-.99-.42-19.55-8.97-28.73-.59-.63-1.3-1.31-2.36-1.52-2.52-.51-4.92,2.03-9.52,7.07-3.66,4-6.54,7.2-8.3,9.16-3.86-.22-7.99-.32-12.36-.25-4.37-.07-8.5.03-12.36.25-1.76-1.96-4.64-5.16-8.3-9.16-4.61-5.03-7-7.58-9.52-7.07-1.06.21-1.77.89-2.36,1.52-8.55,9.18-8.96,27.75-8.97,28.73-.01.94,0,1.68,0,1.92-2.06,4.04-4.81,10.37-6.41,18.57-.9,4.63-1.65,8.43-.94,13,1.5,9.69,8.45,15.92,11.33,18.5,2.79,2.5,5.75,4.46,8.77,6-2.19,6.56-4.96,14.22-8.42,22.63-7.39,17.97-10.42,21.14-13.32,31.48-2.72,9.69-9,32.09,1.08,50.2,9.31,16.73,29.22,23.81,47.86,25.27-.15,4.09-1.15,8.65-3.88,13.04-4.21,6.76-11.28,11.07-21.04,12.83-4.46.8-13.73,2.48-21.86-3.49-8.86-6.5-9.79-17.31-9.89-19.41-.22-4.84-4.31-8.58-9.17-8.37-4.84.22-8.59,4.33-8.37,9.17.23,4.92,2.12,21.82,17.04,32.76,8.46,6.21,17.34,7.74,24.35,7.74,4.76,0,8.67-.7,11.01-1.13,18.49-3.33,28.05-13.17,32.82-20.83,4.83-7.75,6.44-15.65,6.55-22.55,1.48-.16,2.92-.36,4.31-.59,8.39-1.38,33.57-5.51,43.88-25.53,10.33-20.05-.41-44.08-4.59-53.44Z"/>
</svg>